<?xml version="1.0" encoding="UTF-8" standalone="no"?>
<!-- Generator: Adobe Illustrator 23.0.4, SVG Export Plug-In . SVG Version: 6.00 Build 0)  -->

<svg
   xmlns:dc="http://purl.org/dc/elements/1.1/"
   xmlns:cc="http://creativecommons.org/ns#"
   xmlns:rdf="http://www.w3.org/1999/02/22-rdf-syntax-ns#"
   xmlns:svg="http://www.w3.org/2000/svg"
   xmlns="http://www.w3.org/2000/svg"
   xmlns:sodipodi="http://sodipodi.sourceforge.net/DTD/sodipodi-0.dtd"
   xmlns:inkscape="http://www.inkscape.org/namespaces/inkscape"
   version="1.1"
   id="SJR2QOEwG"
   x="0px"
   y="0px"
   viewBox="0 0 195.6 77.9"
   style="enable-background:new 0 0 195.6 77.9;"
   xml:space="preserve"
   sodipodi:docname="logo-primary-invert.svg"
   inkscape:version="0.92.4 (5da689c313, 2019-01-14)"><metadata
   id="metadata7021"><rdf:RDF><cc:Work
       rdf:about=""><dc:format>image/svg+xml</dc:format><dc:type
         rdf:resource="http://purl.org/dc/dcmitype/StillImage" /><dc:title></dc:title></cc:Work></rdf:RDF></metadata><defs
   id="defs7019" /><sodipodi:namedview
   pagecolor="#ffffff"
   bordercolor="#666666"
   borderopacity="1"
   objecttolerance="10"
   gridtolerance="10"
   guidetolerance="10"
   inkscape:pageopacity="0"
   inkscape:pageshadow="2"
   inkscape:window-width="1920"
   inkscape:window-height="1017"
   id="namedview7017"
   showgrid="false"
   inkscape:zoom="1.9376278"
   inkscape:cx="97.800003"
   inkscape:cy="38.950001"
   inkscape:window-x="-8"
   inkscape:window-y="-8"
   inkscape:window-maximized="1"
   inkscape:current-layer="SJR2QOEwG" />
<style
   type="text/css"
   id="style7012">
	.st0{fill:#292E6E;}
</style>
<path
   id="rJg02Q_EPz"
   class="st0"
   d="M13.1,23.5c0.3-2.8,1.2-3.1,9.6-3.1c7.1,0,8,0.7,8,5.5v1.6h-0.5c-1.8-2-3.4-2.4-8.8-2.4  c-8.6,0-11.6,0.2-14.4,1c-4.6,1.2-6.7,4.3-6.7,9.9c0,7.4,3.2,9.7,13.6,9.7c7.6,0,10.6-0.3,12.5-1.1c2.1-0.9,3.4-2,4.4-4H31v4.3h11.2  V26.1c0-5.7-0.7-8-2.6-10.2c-2.6-2.6-5-3.1-15.2-3.1c-9.4,0-14.8,0.6-17.5,1.8c-3.6,1.8-5.1,4.2-5.5,8.8H13.1z M20.9,31.7  c4.9,0,6.8,0.1,7.5,0.3c1.3,0.5,2,1.4,2,2.6c0,2.8-2.3,3.6-10.6,3.6c-6.3,0-8-0.7-8-3.2C11.8,32.4,13.7,31.7,20.9,31.7L20.9,31.7z   M11.4,9.1l9.7-0.1c3.4-2.6,6.9-3.5,17.7-4.3L26,0C22.5,1.2,13.2,5.6,11.4,9.1L11.4,9.1z M47.3,13.7v31.2h11.7V32  c0-4.8,0.3-6.5,1.5-8c1.1-1.5,3.3-2.2,5.9-2.2c4.8,0,6.1,1.3,6.1,5.9h11v-2.1c0-9.4-3.2-12.5-12.6-12.5c-6.5,0-9.8,1.5-12,5.5h-0.6  v-4.7L47.3,13.7z M86.8,13.7v31.2h11.7V13.7H86.8z M86.8,0.9v8.8h11.7V0.9L86.8,0.9z M146.9,0.9h-11.7v16.9h-0.5  c-2.2-4-4.9-5-13.1-5c-8,0-11.3,0.5-14.1,2.4c-3.3,2.2-4.6,5.9-4.6,13.8c0,7.8,0.8,10.9,3.4,13.3c2.7,2.4,6.7,3.3,15.2,3.3  c8.4,0,11.5-1.1,13.8-4.9h0.6v4.1h11L146.9,0.9z M125.4,21.6c8.3,0,9.8,1.2,9.8,7.7c0,3.6-0.5,5.3-1.8,6.1c-1.3,0.9-4.5,1.5-8.8,1.5  c-8.8,0-10.1-1.1-10.1-7.9C114.6,22.7,116.2,21.6,125.4,21.6L125.4,21.6z M173.4,12.9c-10.6,0-15.2,0.7-18.1,2.8  c-3.1,2.2-4,5.2-4,12.5c0,9,0.7,11.9,3.6,14.3c3,2.4,6.9,3.1,18.5,3.1c11.5,0,15.4-0.7,18.4-3.1c2.8-2.4,3.6-5.3,3.6-13.8  c0-7.8-0.9-10.7-4-13C188.5,13.6,184,12.9,173.4,12.9z M173.4,21.7c3.3,0,6.1,0.3,7.5,0.9c2.2,0.9,2.8,2.4,2.8,6.6  c0,6.6-1.5,7.7-10.4,7.7c-3.8,0-6.4-0.3-7.8-1c-2.1-0.9-2.6-2.2-2.6-6.4C162.9,22.9,164.5,21.7,173.4,21.7L173.4,21.7z"
   style="fill:#ffffff" />
<path
   id="hola"
   class="st0"
   d="M0,67.5v0.9c0,2.2,0.4,3.4,1.7,4.3c1.4,1,3.9,1.3,10.1,1.3c5.2,0,7.8-0.3,9.2-1  c1.5-0.8,2.2-2.2,2.2-4.4c0-3.6-1.7-5.2-5.9-5.3c-1.9-0.1-7.2-0.2-8.4-0.2c-4.4,0.1-5.4-0.4-5.4-2.4c0-0.9,0.3-1.6,0.8-2  c0.8-0.6,3.2-0.9,7.3-0.9c4.3,0,6.5,0.3,7.3,1.1c0.4,0.4,0.6,0.9,0.6,2.2h3.1c0-2.2-0.2-2.8-0.8-3.6c-1.3-1.7-3.8-2.3-10-2.3  c-5.4,0-8.1,0.4-9.4,1.2c-1.3,0.9-1.9,2.2-1.9,4.2c0,3.7,1.7,5,6.5,5c7,0.1,7.6,0.1,8.4,0.1c3.7,0,4.9,0.7,4.9,2.8  c0,0.9-0.2,1.5-0.8,2c-0.9,0.7-2.3,0.9-7.3,0.9c-8.2,0-8.8-0.2-8.8-3.5l0-0.5L0,67.5z M36.5,55.4c-4.1,0-6.2,0.3-7.7,1.1  c-2.4,1.3-3.5,3.9-3.5,8.2c0,4.5,0.9,6.8,3.2,8.2c1.7,1,3.9,1.3,9.3,1.3c4.7,0,6.7-0.3,8.3-1.2c2.3-1.3,3.3-3.8,3.3-8.2  c0-4.3-0.9-6.6-3.1-8C44.7,55.7,42.4,55.4,36.5,55.4z M37,57.9c3.7,0,5.7,0.2,6.8,0.7c1.9,0.8,2.5,2.4,2.5,6c0,3.2-0.5,4.8-1.7,5.8  c-1.2,0.9-2.8,1.2-7.1,1.2c-3.4,0-5.1-0.2-6.3-0.6c-2.1-0.7-2.9-2.4-2.9-6.2C28.4,58.9,29.7,57.9,37,57.9L37,57.9z M50.3,58.1h4.1  v15.8h2.9V58.1h9.2v-2.5h-9.2l0-0.6c0-4.1,0.8-4.8,6-4.9l3.1-0.1v-2.5l-3.3,0.1c-7.2,0.2-8.8,1.6-8.8,8h-4.1L50.3,58.1z M72,51.1  v4.5h-4.5v2.5H72v8.8c0,2.9,0.2,4,1,5.1c1.1,1.5,3.2,2.1,7.1,2.1c3.9,0,5.8-0.6,6.9-2.2c0.7-1.1,1-2.3,1-5.1v-1.1h-2.9v1.1  c0,2.2-0.1,2.9-0.6,3.6c-0.6,1-1.6,1.3-4.2,1.3c-2.8,0-4.1-0.4-4.8-1.3C75,69.6,75,69.4,74.9,66v-7.9h12.8v-2.5H74.9v-4.5L72,51.1z   M88,55.6l8.4,18.3h4.3l5.6-15.5h0.3l5.6,15.5h4.3l8.5-18.3h-3.4l-7,15.6h-0.3l-5.6-15.6h-4.5l-5.5,15.6h-0.3l-7.1-15.6H88z   M129.1,61.1v-0.2c0-2.5,1.1-3,7.4-3c4.8,0,6.4,0.4,7.5,1.6c0.7,0.8,0.9,1.6,0.9,3.5v2h-0.2c-1.3-1.7-2.5-2-10-2  c-3.9,0-5.6,0.2-6.7,0.6c-1.9,0.7-2.6,2.1-2.6,5c0,2.2,0.4,3.3,1.6,4.3c1.3,1,3.1,1.3,9.6,1.3c5.6,0,6.9-0.4,8.3-2.4h0.1l0,2.1h2.9  v-9.6c0-4.3-0.3-5.6-1.5-6.8c-1.5-1.6-3.7-2.1-9.9-2.1c-7.9,0-10.3,1.1-10.3,4.9v0.8L129.1,61.1z M136.5,65.5c6.4,0,8.2,0.6,8.2,3  c0,2.4-1.5,3-7.6,3c-4.5,0-6.5-0.1-7.3-0.5c-1-0.4-1.4-1.1-1.4-2.5c0-1.2,0.4-2,1.1-2.4C130.3,65.6,131.7,65.5,136.5,65.5  L136.5,65.5z M150.8,55.6v18.3h2.9v-8.4c0-6.4,1.2-7.5,8.2-7.5c4.5,0,5.5,0.8,5.5,4.6v1.3h3v-1.9c0-2.4-0.6-4.1-1.9-5.2  c-1.2-1.1-2.7-1.4-6.3-1.4c-3.5,0-5,0.2-6.1,0.7c-1,0.5-1.7,1.1-2.2,2h-0.2v-2.4L150.8,55.6z M192.5,68.2c-0.1,1.2-0.2,1.5-0.7,2  c-0.9,1.1-2.6,1.4-6.7,1.4c-5.5,0-7.5-0.4-8.6-1.5c-0.9-0.9-1.3-2.3-1.3-4.7h20.4c-0.1-4.3-0.5-6-1.9-7.6c-1.7-1.9-3.9-2.4-10.2-2.4  c-4.4,0-6.5,0.3-8,1.1c-2.4,1.3-3.4,3.9-3.4,8.3c0,3.7,0.9,6.3,2.6,7.6c1.6,1.3,4.4,1.7,10.7,1.7c7.4,0,10-1.5,10.1-5.9H192.5z   M175.3,62.9c0.3-4.1,1.9-5,8.2-5c7.1,0,8.9,1,8.9,5H175.3z"
   style="fill:#ffffff" />
</svg>